# xmcd
#
# Track frame offsets:
#	182
#	11802
#	23340
#	40515
#	55560
#	77322
#	92987
#	110467
#	124180
#	145202
#	162042
#
# Disc length: 2543 seconds
#
# Revision: 0
# Processed by: cddbd v1.5.1PL0 Copyright (c) Steve Scherf et al.
# Submitted via: dBpowerAMP V4.0
#
DISCID=7609ed0b
DTITLE=Chicken Shack - O.K. Ken?
DYEAR=1968
DGENRE=Blues
TTITLE0=Baby's Got Me Crying
TTITLE1=The Right Way Is My Way
TTITLE2=Get Like You Used To Be
TTITLE3=Pony And Trap
TTITLE4=Tell Me
TTITLE5=A Woman Is The Blues
TTITLE6=I Wanna See My Baby
TTITLE7=Remington Ride
TTITLE8=Fishing In Your River
TTITLE9=Mean Old World
TTITLE10=Sweet Sixteen
EXTD=
EXTT0=
EXTT1=
EXTT2=
EXTT3=
EXTT4=
EXTT5=
EXTT6=
EXTT7=
EXTT8=
EXTT9=
EXTT10=
PLAYORDER=
